{
	"asset":{
		"generator":"Khronos glTF Blender I/O v4.3.47",
		"version":"2.0"
	},
	"extensionsUsed":[
		"KHR_materials_specular"
	],
	"scene":0,
	"scenes":[
		{
			"name":"Scene",
			"nodes":[
				0
			]
		}
	],
	"nodes":[
		{
			"mesh":0,
			"name":"Home_colonists",
			"rotation":[
				0.7071068286895752,
				0,
				0,
				0.7071068286895752
			],
			"scale":[
				0.009999999776482582,
				0.009999999776482582,
				0.009999999776482582
			],
			"translation":[
				-0.025039061903953552,
				2.845224618911743,
				0.007909035310149193
			]
		}
	],
	"materials":[
		{
			"doubleSided":true,
			"extensions":{
				"KHR_materials_specular":{
					"specularFactor":0
				}
			},
			"name":"Space_base_mat",
			"pbrMetallicRoughness":{
				"baseColorTexture":{
					"index":0
				},
				"roughnessFactor":0.858578622341156
			}
		}
	],
	"meshes":[
		{
			"name":"Mesh.046",
			"primitives":[
				{
					"attributes":{
						"POSITION":0,
						"NORMAL":1,
						"TEXCOORD_0":2
					},
					"indices":3,
					"material":0
				}
			]
		}
	],
	"textures":[
		{
			"sampler":0,
			"source":0
		}
	],
	"images":[
		{
			"mimeType":"image/png",
			"name":"T_Spase_64",
			"uri":"T_Spase_64.png"
		}
	],
	"accessors":[
		{
			"bufferView":0,
			"componentType":5126,
			"count":3482,
			"max":[
				732.2181396484375,
				484.5125732421875,
				284.5229187011719
			],
			"min":[
				-727.2097778320312,
				-487.8668212890625,
				-771.197265625
			],
			"type":"VEC3"
		},
		{
			"bufferView":1,
			"componentType":5126,
			"count":3482,
			"type":"VEC3"
		},
		{
			"bufferView":2,
			"componentType":5126,
			"count":3482,
			"type":"VEC2"
		},
		{
			"bufferView":3,
			"componentType":5123,
			"count":14547,
			"type":"SCALAR"
		}
	],
	"bufferViews":[
		{
			"buffer":0,
			"byteLength":41784,
			"byteOffset":0,
			"target":34962
		},
		{
			"buffer":0,
			"byteLength":41784,
			"byteOffset":41784,
			"target":34962
		},
		{
			"buffer":0,
			"byteLength":27856,
			"byteOffset":83568,
			"target":34962
		},
		{
			"buffer":0,
			"byteLength":29094,
			"byteOffset":111424,
			"target":34963
		}
	],
	"samplers":[
		{
			"magFilter":9729,
			"minFilter":9987
		}
	],
	"buffers":[
		{
			"byteLength":140520,
			"uri":"untitled.bin"
		}
	]
}
