{
	"asset":{
		"generator":"Khronos glTF Blender I/O v4.3.47",
		"version":"2.0"
	},
	"scene":0,
	"scenes":[
		{
			"name":"Scene",
			"nodes":[
				0
			]
		}
	],
	"nodes":[
		{
			"mesh":0,
			"name":"_1_tree__1_tree_0",
			"rotation":[
				-0.70710688829422,
				0,
				0,
				0.7071066498756409
			],
			"scale":[
				0.3865678012371063,
				0.3865678310394287,
				0.2901151478290558
			],
			"translation":[
				2.349555492401123,
				1.61918044090271,
				0.9605728387832642
			]
		}
	],
	"materials":[
		{
			"doubleSided":true,
			"name":"1_tree.001",
			"pbrMetallicRoughness":{
				"baseColorTexture":{
					"index":0
				},
				"metallicFactor":0,
				"roughnessFactor":0.9577051401138306
			}
		}
	],
	"meshes":[
		{
			"name":"_1_tree__1_tree_0.001",
			"primitives":[
				{
					"attributes":{
						"POSITION":0,
						"NORMAL":1,
						"TEXCOORD_0":2,
						"TEXCOORD_1":3
					},
					"indices":4,
					"material":0
				}
			]
		}
	],
	"textures":[
		{
			"sampler":0,
			"source":0
		}
	],
	"images":[
		{
			"mimeType":"image/png",
			"name":"1_tree_baseColor",
			"uri":"1_tree_baseColor.png"
		}
	],
	"accessors":[
		{
			"bufferView":0,
			"componentType":5126,
			"count":3000,
			"max":[
				0.9501636028289795,
				1.0089399814605713,
				4.987631797790527
			],
			"min":[
				-0.9855466485023499,
				-1.0084539651870728,
				0
			],
			"type":"VEC3"
		},
		{
			"bufferView":1,
			"componentType":5126,
			"count":3000,
			"type":"VEC3"
		},
		{
			"bufferView":2,
			"componentType":5126,
			"count":3000,
			"type":"VEC2"
		},
		{
			"bufferView":3,
			"componentType":5126,
			"count":3000,
			"type":"VEC2"
		},
		{
			"bufferView":4,
			"componentType":5123,
			"count":3018,
			"type":"SCALAR"
		}
	],
	"bufferViews":[
		{
			"buffer":0,
			"byteLength":36000,
			"byteOffset":0,
			"target":34962
		},
		{
			"buffer":0,
			"byteLength":36000,
			"byteOffset":36000,
			"target":34962
		},
		{
			"buffer":0,
			"byteLength":24000,
			"byteOffset":72000,
			"target":34962
		},
		{
			"buffer":0,
			"byteLength":24000,
			"byteOffset":96000,
			"target":34962
		},
		{
			"buffer":0,
			"byteLength":6036,
			"byteOffset":120000,
			"target":34963
		}
	],
	"samplers":[
		{
			"magFilter":9729,
			"minFilter":9987
		}
	],
	"buffers":[
		{
			"byteLength":126036,
			"uri":"untitled.bin"
		}
	]
}
