{
	"asset":{
		"generator":"Khronos glTF Blender I/O v4.3.47",
		"version":"2.0"
	},
	"extensionsUsed":[
		"KHR_materials_specular"
	],
	"scene":0,
	"scenes":[
		{
			"name":"Scene",
			"nodes":[
				0,
				1,
				2,
				3,
				4,
				5,
				6,
				7,
				8,
				9
			]
		}
	],
	"nodes":[
		{
			"mesh":0,
			"name":"Section",
			"rotation":[
				0.7071068286895752,
				0,
				0,
				0.7071068286895752
			],
			"scale":[
				0.009999999776482582,
				0.009999999776482582,
				0.009999999776482582
			],
			"translation":[
				0,
				0.014362145215272903,
				48.506404876708984
			]
		},
		{
			"mesh":1,
			"name":"Main_house_3lv",
			"rotation":[
				0.5,
				0.5,
				-0.5,
				0.5000000596046448
			],
			"scale":[
				0.009999999776482582,
				0.009999999776482582,
				0.009999999776482582
			],
			"translation":[
				0,
				0,
				37.78861618041992
			]
		},
		{
			"mesh":2,
			"name":"Main_house_2lv",
			"rotation":[
				0.7071068286895752,
				0,
				0,
				0.7071068286895752
			],
			"scale":[
				0.009999999776482582,
				0.009999999776482582,
				0.009999999776482582
			],
			"translation":[
				10.852771759033203,
				0,
				52.414005279541016
			]
		},
		{
			"mesh":3,
			"name":"Main_house",
			"rotation":[
				0.5,
				-0.5,
				0.5,
				0.5000000596046448
			],
			"scale":[
				0.009999999776482582,
				0.009999999776482582,
				0.009999999776482582
			],
			"translation":[
				0,
				0,
				67.28189849853516
			]
		},
		{
			"mesh":4,
			"name":"Decontamination_section",
			"rotation":[
				0.5,
				-0.5,
				0.5,
				0.5000000596046448
			],
			"scale":[
				0.009999999776482582,
				0.009999999776482582,
				0.009999999776482582
			],
			"translation":[
				-4.59411096572876,
				2.006632089614868,
				52.43577194213867
			]
		},
		{
			"mesh":5,
			"name":"Cross_section",
			"rotation":[
				0.7071068286895752,
				0,
				0,
				0.7071068286895752
			],
			"scale":[
				0.009999999776482582,
				0.009999999776482582,
				0.009999999776482582
			],
			"translation":[
				0,
				0,
				52.464290618896484
			]
		},
		{
			"mesh":6,
			"name":"Connecting_gateway",
			"rotation":[
				0.7071068286895752,
				0,
				0,
				0.7071068286895752
			],
			"scale":[
				0.009999999776482582,
				0.009999999776482582,
				0.009999999776482582
			],
			"translation":[
				3.8465309143066406,
				0,
				52.521114349365234
			]
		},
		{
			"mesh":7,
			"name":"Section.001",
			"rotation":[
				0.7071068286895752,
				0,
				0,
				0.7071068286895752
			],
			"scale":[
				0.009999999776482582,
				0.009999999776482582,
				0.009999999776482582
			],
			"translation":[
				0,
				0.014362145215272903,
				44.52996063232422
			]
		},
		{
			"mesh":8,
			"name":"Section.002",
			"rotation":[
				0.7071068286895752,
				0,
				0,
				0.7071068286895752
			],
			"scale":[
				0.009999999776482582,
				0.009999999776482582,
				0.009999999776482582
			],
			"translation":[
				0,
				0.014362145215272903,
				56.43412399291992
			]
		},
		{
			"mesh":9,
			"name":"Section.003",
			"rotation":[
				0.7071068286895752,
				0,
				0,
				0.7071068286895752
			],
			"scale":[
				0.009999999776482582,
				0.009999999776482582,
				0.009999999776482582
			],
			"translation":[
				0,
				0.014362145215272903,
				60.43816375732422
			]
		}
	],
	"materials":[
		{
			"doubleSided":true,
			"extensions":{
				"KHR_materials_specular":{
					"specularFactor":0
				}
			},
			"name":"Space_base_mat.013",
			"pbrMetallicRoughness":{
				"baseColorTexture":{
					"index":0
				},
				"roughnessFactor":0.858578622341156
			}
		},
		{
			"doubleSided":true,
			"extensions":{
				"KHR_materials_specular":{
					"specularFactor":0
				}
			},
			"name":"Space_base_mat.019",
			"pbrMetallicRoughness":{
				"baseColorTexture":{
					"index":1
				},
				"roughnessFactor":0.858578622341156
			}
		},
		{
			"doubleSided":true,
			"extensions":{
				"KHR_materials_specular":{
					"specularFactor":0
				}
			},
			"name":"Space_base_mat.020",
			"pbrMetallicRoughness":{
				"baseColorTexture":{
					"index":2
				},
				"roughnessFactor":0.858578622341156
			}
		},
		{
			"doubleSided":true,
			"extensions":{
				"KHR_materials_specular":{
					"specularFactor":0
				}
			},
			"name":"Space_base_mat.021",
			"pbrMetallicRoughness":{
				"baseColorTexture":{
					"index":3
				},
				"roughnessFactor":0.858578622341156
			}
		},
		{
			"doubleSided":true,
			"extensions":{
				"KHR_materials_specular":{
					"specularFactor":0
				}
			},
			"name":"Space_base_mat.032",
			"pbrMetallicRoughness":{
				"baseColorTexture":{
					"index":4
				},
				"roughnessFactor":0.858578622341156
			}
		},
		{
			"doubleSided":true,
			"extensions":{
				"KHR_materials_specular":{
					"specularFactor":0
				}
			},
			"name":"Space_base_mat.033",
			"pbrMetallicRoughness":{
				"baseColorTexture":{
					"index":5
				},
				"roughnessFactor":0.858578622341156
			}
		},
		{
			"doubleSided":true,
			"extensions":{
				"KHR_materials_specular":{
					"specularFactor":0
				}
			},
			"name":"Space_base_mat.038",
			"pbrMetallicRoughness":{
				"baseColorTexture":{
					"index":6
				},
				"roughnessFactor":0.858578622341156
			}
		},
		{
			"doubleSided":true,
			"extensions":{
				"KHR_materials_specular":{
					"specularFactor":0
				}
			},
			"name":"Space_base_mat.039",
			"pbrMetallicRoughness":{
				"baseColorTexture":{
					"index":7
				},
				"roughnessFactor":0.858578622341156
			}
		},
		{
			"doubleSided":true,
			"extensions":{
				"KHR_materials_specular":{
					"specularFactor":0
				}
			},
			"name":"Space_base_mat.040",
			"pbrMetallicRoughness":{
				"baseColorTexture":{
					"index":8
				},
				"roughnessFactor":0.858578622341156
			}
		},
		{
			"doubleSided":true,
			"extensions":{
				"KHR_materials_specular":{
					"specularFactor":0
				}
			},
			"name":"Space_base_mat.041",
			"pbrMetallicRoughness":{
				"baseColorTexture":{
					"index":9
				},
				"roughnessFactor":0.858578622341156
			}
		}
	],
	"meshes":[
		{
			"name":"Mesh.056",
			"primitives":[
				{
					"attributes":{
						"POSITION":0,
						"NORMAL":1,
						"TEXCOORD_0":2
					},
					"indices":3,
					"material":0
				}
			]
		},
		{
			"name":"Mesh.002",
			"primitives":[
				{
					"attributes":{
						"POSITION":4,
						"NORMAL":5,
						"TEXCOORD_0":6
					},
					"indices":7,
					"material":1
				}
			]
		},
		{
			"name":"Mesh.000",
			"primitives":[
				{
					"attributes":{
						"POSITION":8,
						"NORMAL":9,
						"TEXCOORD_0":10
					},
					"indices":11,
					"material":2
				}
			]
		},
		{
			"name":"Mesh.049",
			"primitives":[
				{
					"attributes":{
						"POSITION":12,
						"NORMAL":13,
						"TEXCOORD_0":14
					},
					"indices":15,
					"material":3
				}
			]
		},
		{
			"name":"Mesh.039",
			"primitives":[
				{
					"attributes":{
						"POSITION":16,
						"NORMAL":17,
						"TEXCOORD_0":18
					},
					"indices":19,
					"material":4
				}
			]
		},
		{
			"name":"Mesh.038",
			"primitives":[
				{
					"attributes":{
						"POSITION":20,
						"NORMAL":21,
						"TEXCOORD_0":22
					},
					"indices":23,
					"material":5
				}
			]
		},
		{
			"name":"Mesh.034",
			"primitives":[
				{
					"attributes":{
						"POSITION":24,
						"NORMAL":25,
						"TEXCOORD_0":26
					},
					"indices":27,
					"material":6
				}
			]
		},
		{
			"name":"Mesh.006",
			"primitives":[
				{
					"attributes":{
						"POSITION":28,
						"NORMAL":29,
						"TEXCOORD_0":30
					},
					"indices":3,
					"material":7
				}
			]
		},
		{
			"name":"Mesh.007",
			"primitives":[
				{
					"attributes":{
						"POSITION":31,
						"NORMAL":32,
						"TEXCOORD_0":33
					},
					"indices":3,
					"material":8
				}
			]
		},
		{
			"name":"Mesh.009",
			"primitives":[
				{
					"attributes":{
						"POSITION":34,
						"NORMAL":35,
						"TEXCOORD_0":36
					},
					"indices":3,
					"material":9
				}
			]
		}
	],
	"textures":[
		{
			"sampler":0,
			"source":0
		},
		{
			"sampler":0,
			"source":0
		},
		{
			"sampler":0,
			"source":0
		},
		{
			"sampler":0,
			"source":0
		},
		{
			"sampler":0,
			"source":0
		},
		{
			"sampler":0,
			"source":0
		},
		{
			"sampler":0,
			"source":0
		},
		{
			"sampler":0,
			"source":0
		},
		{
			"sampler":0,
			"source":0
		},
		{
			"sampler":0,
			"source":0
		}
	],
	"images":[
		{
			"mimeType":"image/png",
			"name":"T_Spase_64",
			"uri":"T_Spase_64.png"
		}
	],
	"accessors":[
		{
			"bufferView":0,
			"componentType":5126,
			"count":338,
			"max":[
				137.75820922851562,
				196.93972778320312,
				-0.21312592923641205
			],
			"min":[
				-137.75820922851562,
				-198.37550354003906,
				-275.729736328125
			],
			"type":"VEC3"
		},
		{
			"bufferView":1,
			"componentType":5126,
			"count":338,
			"type":"VEC3"
		},
		{
			"bufferView":2,
			"componentType":5126,
			"count":338,
			"type":"VEC2"
		},
		{
			"bufferView":3,
			"componentType":5123,
			"count":1716,
			"type":"SCALAR"
		},
		{
			"bufferView":4,
			"componentType":5126,
			"count":6273,
			"max":[
				813.4364013671875,
				813.2125854492188,
				0.0002814448089338839
			],
			"min":[
				-826.701904296875,
				-1216.735595703125,
				-1368.4849853515625
			],
			"type":"VEC3"
		},
		{
			"bufferView":5,
			"componentType":5126,
			"count":6273,
			"type":"VEC3"
		},
		{
			"bufferView":6,
			"componentType":5126,
			"count":6273,
			"type":"VEC2"
		},
		{
			"bufferView":7,
			"componentType":5123,
			"count":26796,
			"type":"SCALAR"
		},
		{
			"bufferView":8,
			"componentType":5126,
			"count":2847,
			"max":[
				558.3306884765625,
				784.8617553710938,
				0.00029670356889255345
			],
			"min":[
				-826.701904296875,
				-980.6929321289062,
				-514.2435913085938
			],
			"type":"VEC3"
		},
		{
			"bufferView":9,
			"componentType":5126,
			"count":2847,
			"type":"VEC3"
		},
		{
			"bufferView":10,
			"componentType":5126,
			"count":2847,
			"type":"VEC2"
		},
		{
			"bufferView":11,
			"componentType":5123,
			"count":10884,
			"type":"SCALAR"
		},
		{
			"bufferView":12,
			"componentType":5126,
			"count":2117,
			"max":[
				558.3306884765625,
				558.01318359375,
				0.0002814448089338839
			],
			"min":[
				-826.701904296875,
				-560.900634765625,
				-442.7698059082031
			],
			"type":"VEC3"
		},
		{
			"bufferView":13,
			"componentType":5126,
			"count":2117,
			"type":"VEC3"
		},
		{
			"bufferView":14,
			"componentType":5126,
			"count":2117,
			"type":"VEC2"
		},
		{
			"bufferView":15,
			"componentType":5123,
			"count":7533,
			"type":"SCALAR"
		},
		{
			"bufferView":16,
			"componentType":5126,
			"count":1443,
			"max":[
				277.94879150390625,
				277.310302734375,
				200.66329956054688
			],
			"min":[
				-286.06597900390625,
				-275.8304443359375,
				-245.143798828125
			],
			"type":"VEC3"
		},
		{
			"bufferView":17,
			"componentType":5126,
			"count":1443,
			"type":"VEC3"
		},
		{
			"bufferView":18,
			"componentType":5126,
			"count":1443,
			"type":"VEC2"
		},
		{
			"bufferView":19,
			"componentType":5123,
			"count":6204,
			"type":"SCALAR"
		},
		{
			"bufferView":20,
			"componentType":5126,
			"count":676,
			"max":[
				197.6609344482422,
				197.65762329101562,
				0.68536376953125
			],
			"min":[
				-197.65431213378906,
				-197.65760803222656,
				-274.83123779296875
			],
			"type":"VEC3"
		},
		{
			"bufferView":21,
			"componentType":5126,
			"count":676,
			"type":"VEC3"
		},
		{
			"bufferView":22,
			"componentType":5126,
			"count":676,
			"type":"VEC2"
		},
		{
			"bufferView":23,
			"componentType":5123,
			"count":3432,
			"type":"SCALAR"
		},
		{
			"bufferView":24,
			"componentType":5126,
			"count":1327,
			"max":[
				184.41404724121094,
				137.75823974609375,
				-0.32403564453125
			],
			"min":[
				-184.4208984375,
				-137.7582244873047,
				-301.720703125
			],
			"type":"VEC3"
		},
		{
			"bufferView":25,
			"componentType":5126,
			"count":1327,
			"type":"VEC3"
		},
		{
			"bufferView":26,
			"componentType":5126,
			"count":1327,
			"type":"VEC2"
		},
		{
			"bufferView":27,
			"componentType":5123,
			"count":5010,
			"type":"SCALAR"
		},
		{
			"bufferView":28,
			"componentType":5126,
			"count":338,
			"max":[
				137.75820922851562,
				196.93972778320312,
				-0.21312592923641205
			],
			"min":[
				-137.75820922851562,
				-198.37550354003906,
				-275.729736328125
			],
			"type":"VEC3"
		},
		{
			"bufferView":29,
			"componentType":5126,
			"count":338,
			"type":"VEC3"
		},
		{
			"bufferView":30,
			"componentType":5126,
			"count":338,
			"type":"VEC2"
		},
		{
			"bufferView":31,
			"componentType":5126,
			"count":338,
			"max":[
				137.75820922851562,
				196.93972778320312,
				-0.21312592923641205
			],
			"min":[
				-137.75820922851562,
				-198.37550354003906,
				-275.729736328125
			],
			"type":"VEC3"
		},
		{
			"bufferView":32,
			"componentType":5126,
			"count":338,
			"type":"VEC3"
		},
		{
			"bufferView":33,
			"componentType":5126,
			"count":338,
			"type":"VEC2"
		},
		{
			"bufferView":34,
			"componentType":5126,
			"count":338,
			"max":[
				137.75820922851562,
				196.93972778320312,
				-0.21312592923641205
			],
			"min":[
				-137.75820922851562,
				-198.37550354003906,
				-275.729736328125
			],
			"type":"VEC3"
		},
		{
			"bufferView":35,
			"componentType":5126,
			"count":338,
			"type":"VEC3"
		},
		{
			"bufferView":36,
			"componentType":5126,
			"count":338,
			"type":"VEC2"
		}
	],
	"bufferViews":[
		{
			"buffer":0,
			"byteLength":4056,
			"byteOffset":0,
			"target":34962
		},
		{
			"buffer":0,
			"byteLength":4056,
			"byteOffset":4056,
			"target":34962
		},
		{
			"buffer":0,
			"byteLength":2704,
			"byteOffset":8112,
			"target":34962
		},
		{
			"buffer":0,
			"byteLength":3432,
			"byteOffset":10816,
			"target":34963
		},
		{
			"buffer":0,
			"byteLength":75276,
			"byteOffset":14248,
			"target":34962
		},
		{
			"buffer":0,
			"byteLength":75276,
			"byteOffset":89524,
			"target":34962
		},
		{
			"buffer":0,
			"byteLength":50184,
			"byteOffset":164800,
			"target":34962
		},
		{
			"buffer":0,
			"byteLength":53592,
			"byteOffset":214984,
			"target":34963
		},
		{
			"buffer":0,
			"byteLength":34164,
			"byteOffset":268576,
			"target":34962
		},
		{
			"buffer":0,
			"byteLength":34164,
			"byteOffset":302740,
			"target":34962
		},
		{
			"buffer":0,
			"byteLength":22776,
			"byteOffset":336904,
			"target":34962
		},
		{
			"buffer":0,
			"byteLength":21768,
			"byteOffset":359680,
			"target":34963
		},
		{
			"buffer":0,
			"byteLength":25404,
			"byteOffset":381448,
			"target":34962
		},
		{
			"buffer":0,
			"byteLength":25404,
			"byteOffset":406852,
			"target":34962
		},
		{
			"buffer":0,
			"byteLength":16936,
			"byteOffset":432256,
			"target":34962
		},
		{
			"buffer":0,
			"byteLength":15066,
			"byteOffset":449192,
			"target":34963
		},
		{
			"buffer":0,
			"byteLength":17316,
			"byteOffset":464260,
			"target":34962
		},
		{
			"buffer":0,
			"byteLength":17316,
			"byteOffset":481576,
			"target":34962
		},
		{
			"buffer":0,
			"byteLength":11544,
			"byteOffset":498892,
			"target":34962
		},
		{
			"buffer":0,
			"byteLength":12408,
			"byteOffset":510436,
			"target":34963
		},
		{
			"buffer":0,
			"byteLength":8112,
			"byteOffset":522844,
			"target":34962
		},
		{
			"buffer":0,
			"byteLength":8112,
			"byteOffset":530956,
			"target":34962
		},
		{
			"buffer":0,
			"byteLength":5408,
			"byteOffset":539068,
			"target":34962
		},
		{
			"buffer":0,
			"byteLength":6864,
			"byteOffset":544476,
			"target":34963
		},
		{
			"buffer":0,
			"byteLength":15924,
			"byteOffset":551340,
			"target":34962
		},
		{
			"buffer":0,
			"byteLength":15924,
			"byteOffset":567264,
			"target":34962
		},
		{
			"buffer":0,
			"byteLength":10616,
			"byteOffset":583188,
			"target":34962
		},
		{
			"buffer":0,
			"byteLength":10020,
			"byteOffset":593804,
			"target":34963
		},
		{
			"buffer":0,
			"byteLength":4056,
			"byteOffset":603824,
			"target":34962
		},
		{
			"buffer":0,
			"byteLength":4056,
			"byteOffset":607880,
			"target":34962
		},
		{
			"buffer":0,
			"byteLength":2704,
			"byteOffset":611936,
			"target":34962
		},
		{
			"buffer":0,
			"byteLength":4056,
			"byteOffset":614640,
			"target":34962
		},
		{
			"buffer":0,
			"byteLength":4056,
			"byteOffset":618696,
			"target":34962
		},
		{
			"buffer":0,
			"byteLength":2704,
			"byteOffset":622752,
			"target":34962
		},
		{
			"buffer":0,
			"byteLength":4056,
			"byteOffset":625456,
			"target":34962
		},
		{
			"buffer":0,
			"byteLength":4056,
			"byteOffset":629512,
			"target":34962
		},
		{
			"buffer":0,
			"byteLength":2704,
			"byteOffset":633568,
			"target":34962
		}
	],
	"samplers":[
		{
			"magFilter":9729,
			"minFilter":9987
		}
	],
	"buffers":[
		{
			"byteLength":636272,
			"uri":"untitled.bin"
		}
	]
}
