{
	"asset":{
		"generator":"Khronos glTF Blender I/O v4.3.47",
		"version":"2.0"
	},
	"extensionsUsed":[
		"KHR_materials_specular"
	],
	"scene":0,
	"scenes":[
		{
			"name":"Scene",
			"nodes":[
				0
			]
		}
	],
	"nodes":[
		{
			"mesh":0,
			"name":"Research_center",
			"rotation":[
				0.7071068286895752,
				0,
				0,
				0.7071068286895752
			],
			"scale":[
				0.009999999776482582,
				0.009999999776482582,
				0.009999999776482582
			]
		}
	],
	"materials":[
		{
			"doubleSided":true,
			"extensions":{
				"KHR_materials_specular":{
					"specularFactor":0
				}
			},
			"name":"Space_base_mat",
			"pbrMetallicRoughness":{
				"baseColorTexture":{
					"index":0
				},
				"roughnessFactor":0.858578622341156
			}
		}
	],
	"meshes":[
		{
			"name":"Mesh.054",
			"primitives":[
				{
					"attributes":{
						"POSITION":0,
						"NORMAL":1,
						"TEXCOORD_0":2
					},
					"indices":3,
					"material":0
				}
			]
		}
	],
	"textures":[
		{
			"sampler":0,
			"source":0
		}
	],
	"images":[
		{
			"mimeType":"image/png",
			"name":"T_Spase_64",
			"uri":"T_Spase_64.png"
		}
	],
	"accessors":[
		{
			"bufferView":0,
			"componentType":5126,
			"count":5363,
			"max":[
				604.5407104492188,
				652.3980102539062,
				1.4934090359020047e-05
			],
			"min":[
				-946.1629028320312,
				-889.4411010742188,
				-952.7102661132812
			],
			"type":"VEC3"
		},
		{
			"bufferView":1,
			"componentType":5126,
			"count":5363,
			"type":"VEC3"
		},
		{
			"bufferView":2,
			"componentType":5126,
			"count":5363,
			"type":"VEC2"
		},
		{
			"bufferView":3,
			"componentType":5123,
			"count":18873,
			"type":"SCALAR"
		}
	],
	"bufferViews":[
		{
			"buffer":0,
			"byteLength":64356,
			"byteOffset":0,
			"target":34962
		},
		{
			"buffer":0,
			"byteLength":64356,
			"byteOffset":64356,
			"target":34962
		},
		{
			"buffer":0,
			"byteLength":42904,
			"byteOffset":128712,
			"target":34962
		},
		{
			"buffer":0,
			"byteLength":37746,
			"byteOffset":171616,
			"target":34963
		}
	],
	"samplers":[
		{
			"magFilter":9729,
			"minFilter":9987
		}
	],
	"buffers":[
		{
			"byteLength":209364,
			"uri":"untitled.bin"
		}
	]
}
