{
	"asset":{
		"generator":"Khronos glTF Blender I/O v4.3.47",
		"version":"2.0"
	},
	"extensionsUsed":[
		"KHR_materials_specular"
	],
	"scene":0,
	"scenes":[
		{
			"name":"Scene",
			"nodes":[
				0,
				1,
				2,
				3
			]
		}
	],
	"nodes":[
		{
			"mesh":0,
			"name":" Tile_track4",
			"rotation":[
				0.7071068286895752,
				0,
				0,
				0.7071068286895752
			],
			"scale":[
				0.009999999776482582,
				0.009999999776482582,
				0.009999999776482582
			],
			"translation":[
				9.149312019348145,
				0,
				-4.597110271453857
			]
		},
		{
			"mesh":1,
			"name":" Tile_track3",
			"rotation":[
				0.7071068286895752,
				0,
				0,
				0.7071068286895752
			],
			"scale":[
				0.009999999776482582,
				0.009999999776482582,
				0.009999999776482582
			],
			"translation":[
				6.9471211433410645,
				0,
				-4.669486045837402
			]
		},
		{
			"mesh":2,
			"name":" Tile_track2",
			"rotation":[
				0.7071068286895752,
				0,
				0,
				0.7071068286895752
			],
			"scale":[
				0.009999999776482582,
				0.009999999776482582,
				0.009999999776482582
			],
			"translation":[
				6.5470967292785645,
				0,
				-2.6770315170288086
			]
		},
		{
			"mesh":3,
			"name":" Tile_track1",
			"rotation":[
				0.7071068286895752,
				0,
				0,
				0.7071068286895752
			],
			"scale":[
				0.009999999776482582,
				0.009999999776482582,
				0.009999999776482582
			],
			"translation":[
				7.37509298324585,
				0,
				-6.999382495880127
			]
		}
	],
	"materials":[
		{
			"doubleSided":true,
			"extensions":{
				"KHR_materials_specular":{
					"specularFactor":0
				}
			},
			"name":"Space_base_mat.005",
			"pbrMetallicRoughness":{
				"baseColorTexture":{
					"index":0
				},
				"roughnessFactor":0.858578622341156
			}
		},
		{
			"doubleSided":true,
			"extensions":{
				"KHR_materials_specular":{
					"specularFactor":0
				}
			},
			"name":"Space_base_mat.006",
			"pbrMetallicRoughness":{
				"baseColorTexture":{
					"index":1
				},
				"roughnessFactor":0.858578622341156
			}
		},
		{
			"doubleSided":true,
			"extensions":{
				"KHR_materials_specular":{
					"specularFactor":0
				}
			},
			"name":"Space_base_mat.007",
			"pbrMetallicRoughness":{
				"baseColorTexture":{
					"index":2
				},
				"roughnessFactor":0.858578622341156
			}
		},
		{
			"doubleSided":true,
			"extensions":{
				"KHR_materials_specular":{
					"specularFactor":0
				}
			},
			"name":"Space_base_mat.008",
			"pbrMetallicRoughness":{
				"baseColorTexture":{
					"index":3
				},
				"roughnessFactor":0.858578622341156
			}
		}
	],
	"meshes":[
		{
			"name":"Mesh.075",
			"primitives":[
				{
					"attributes":{
						"POSITION":0,
						"NORMAL":1,
						"TEXCOORD_0":2
					},
					"indices":3,
					"material":0
				}
			]
		},
		{
			"name":"Mesh.072",
			"primitives":[
				{
					"attributes":{
						"POSITION":4,
						"NORMAL":5,
						"TEXCOORD_0":6
					},
					"indices":7,
					"material":1
				}
			]
		},
		{
			"name":"Mesh.070",
			"primitives":[
				{
					"attributes":{
						"POSITION":8,
						"NORMAL":9,
						"TEXCOORD_0":10
					},
					"indices":11,
					"material":2
				}
			]
		},
		{
			"name":"Mesh.069",
			"primitives":[
				{
					"attributes":{
						"POSITION":12,
						"NORMAL":13,
						"TEXCOORD_0":14
					},
					"indices":15,
					"material":3
				}
			]
		}
	],
	"textures":[
		{
			"sampler":0,
			"source":0
		},
		{
			"sampler":0,
			"source":0
		},
		{
			"sampler":0,
			"source":0
		},
		{
			"sampler":0,
			"source":0
		}
	],
	"images":[
		{
			"mimeType":"image/png",
			"name":"T_Spase_64",
			"uri":"T_Spase_64.png"
		}
	],
	"accessors":[
		{
			"bufferView":0,
			"componentType":5126,
			"count":246,
			"max":[
				90,
				90,
				7.950752660690341e-07
			],
			"min":[
				-90,
				-90,
				-10.169584274291992
			],
			"type":"VEC3"
		},
		{
			"bufferView":1,
			"componentType":5126,
			"count":246,
			"type":"VEC3"
		},
		{
			"bufferView":2,
			"componentType":5126,
			"count":246,
			"type":"VEC2"
		},
		{
			"bufferView":3,
			"componentType":5123,
			"count":822,
			"type":"SCALAR"
		},
		{
			"bufferView":4,
			"componentType":5126,
			"count":456,
			"max":[
				89.99998474121094,
				89.99999237060547,
				-2.6487628019822296e-06
			],
			"min":[
				-89.99996948242188,
				-90,
				-10.000006675720215
			],
			"type":"VEC3"
		},
		{
			"bufferView":5,
			"componentType":5126,
			"count":456,
			"type":"VEC3"
		},
		{
			"bufferView":6,
			"componentType":5126,
			"count":456,
			"type":"VEC2"
		},
		{
			"bufferView":7,
			"componentType":5123,
			"count":1482,
			"type":"SCALAR"
		},
		{
			"bufferView":8,
			"componentType":5126,
			"count":332,
			"max":[
				90.00001525878906,
				90.00001525878906,
				3.725290298461914e-07
			],
			"min":[
				-89.99525451660156,
				-90.26701354980469,
				-10.243904113769531
			],
			"type":"VEC3"
		},
		{
			"bufferView":9,
			"componentType":5126,
			"count":332,
			"type":"VEC3"
		},
		{
			"bufferView":10,
			"componentType":5126,
			"count":332,
			"type":"VEC2"
		},
		{
			"bufferView":11,
			"componentType":5123,
			"count":1134,
			"type":"SCALAR"
		},
		{
			"bufferView":12,
			"componentType":5126,
			"count":701,
			"max":[
				89.99999237060547,
				90,
				6.794809905841248e-06
			],
			"min":[
				-90,
				-90,
				-10
			],
			"type":"VEC3"
		},
		{
			"bufferView":13,
			"componentType":5126,
			"count":701,
			"type":"VEC3"
		},
		{
			"bufferView":14,
			"componentType":5126,
			"count":701,
			"type":"VEC2"
		},
		{
			"bufferView":15,
			"componentType":5123,
			"count":2340,
			"type":"SCALAR"
		}
	],
	"bufferViews":[
		{
			"buffer":0,
			"byteLength":2952,
			"byteOffset":0,
			"target":34962
		},
		{
			"buffer":0,
			"byteLength":2952,
			"byteOffset":2952,
			"target":34962
		},
		{
			"buffer":0,
			"byteLength":1968,
			"byteOffset":5904,
			"target":34962
		},
		{
			"buffer":0,
			"byteLength":1644,
			"byteOffset":7872,
			"target":34963
		},
		{
			"buffer":0,
			"byteLength":5472,
			"byteOffset":9516,
			"target":34962
		},
		{
			"buffer":0,
			"byteLength":5472,
			"byteOffset":14988,
			"target":34962
		},
		{
			"buffer":0,
			"byteLength":3648,
			"byteOffset":20460,
			"target":34962
		},
		{
			"buffer":0,
			"byteLength":2964,
			"byteOffset":24108,
			"target":34963
		},
		{
			"buffer":0,
			"byteLength":3984,
			"byteOffset":27072,
			"target":34962
		},
		{
			"buffer":0,
			"byteLength":3984,
			"byteOffset":31056,
			"target":34962
		},
		{
			"buffer":0,
			"byteLength":2656,
			"byteOffset":35040,
			"target":34962
		},
		{
			"buffer":0,
			"byteLength":2268,
			"byteOffset":37696,
			"target":34963
		},
		{
			"buffer":0,
			"byteLength":8412,
			"byteOffset":39964,
			"target":34962
		},
		{
			"buffer":0,
			"byteLength":8412,
			"byteOffset":48376,
			"target":34962
		},
		{
			"buffer":0,
			"byteLength":5608,
			"byteOffset":56788,
			"target":34962
		},
		{
			"buffer":0,
			"byteLength":4680,
			"byteOffset":62396,
			"target":34963
		}
	],
	"samplers":[
		{
			"magFilter":9729,
			"minFilter":9987
		}
	],
	"buffers":[
		{
			"byteLength":67076,
			"uri":"untitled.bin"
		}
	]
}
