{
	"asset":{
		"generator":"Khronos glTF Blender I/O v4.3.47",
		"version":"2.0"
	},
	"extensionsUsed":[
		"KHR_materials_specular"
	],
	"scene":0,
	"scenes":[
		{
			"name":"Scene",
			"nodes":[
				0,
				1
			]
		}
	],
	"nodes":[
		{
			"mesh":0,
			"name":"Transporter",
			"rotation":[
				0.7071068286895752,
				0,
				0,
				0.7071068286895752
			],
			"scale":[
				0.009999999776482582,
				0.009999999776482582,
				0.009999999776482582
			],
			"translation":[
				2.5051918029785156,
				14.438508033752441,
				15.803022384643555
			]
		},
		{
			"mesh":1,
			"name":"Runway strip",
			"rotation":[
				0.7071068286895752,
				0,
				0,
				0.7071068286895752
			],
			"scale":[
				0.009999999776482582,
				0.009999999776482582,
				0.009999999776482582
			],
			"translation":[
				0,
				4.633119583129883,
				15.679728507995605
			]
		}
	],
	"materials":[
		{
			"doubleSided":true,
			"extensions":{
				"KHR_materials_specular":{
					"specularFactor":0
				}
			},
			"name":"Space_base_mat.003",
			"pbrMetallicRoughness":{
				"baseColorTexture":{
					"index":0
				},
				"roughnessFactor":0.858578622341156
			}
		},
		{
			"doubleSided":true,
			"extensions":{
				"KHR_materials_specular":{
					"specularFactor":0
				}
			},
			"name":"Space_base_mat.014",
			"pbrMetallicRoughness":{
				"baseColorTexture":{
					"index":1
				},
				"roughnessFactor":0.858578622341156
			}
		}
	],
	"meshes":[
		{
			"name":"Mesh.008",
			"primitives":[
				{
					"attributes":{
						"POSITION":0,
						"NORMAL":1,
						"TEXCOORD_0":2
					},
					"indices":3,
					"material":0
				}
			]
		},
		{
			"name":"Mesh.037",
			"primitives":[
				{
					"attributes":{
						"POSITION":4,
						"NORMAL":5,
						"TEXCOORD_0":6
					},
					"indices":7,
					"material":1
				}
			]
		}
	],
	"textures":[
		{
			"sampler":0,
			"source":0
		},
		{
			"sampler":0,
			"source":0
		}
	],
	"images":[
		{
			"mimeType":"image/png",
			"name":"T_Spase_64",
			"uri":"T_Spase_64.png"
		}
	],
	"accessors":[
		{
			"bufferView":0,
			"componentType":5126,
			"count":4927,
			"max":[
				642.778076171875,
				369.3197937011719,
				1.4569223822036292e-05
			],
			"min":[
				-241.35467529296875,
				-452.8900146484375,
				-345.8650207519531
			],
			"type":"VEC3"
		},
		{
			"bufferView":1,
			"componentType":5126,
			"count":4927,
			"type":"VEC3"
		},
		{
			"bufferView":2,
			"componentType":5126,
			"count":4927,
			"type":"VEC2"
		},
		{
			"bufferView":3,
			"componentType":5123,
			"count":17706,
			"type":"SCALAR"
		},
		{
			"bufferView":4,
			"componentType":5126,
			"count":5553,
			"max":[
				1755.9581298828125,
				740.322998046875,
				3.991040557593806e-06
			],
			"min":[
				-1755.959716796875,
				-740.322998046875,
				-1588.0159912109375
			],
			"type":"VEC3"
		},
		{
			"bufferView":5,
			"componentType":5126,
			"count":5553,
			"type":"VEC3"
		},
		{
			"bufferView":6,
			"componentType":5126,
			"count":5553,
			"type":"VEC2"
		},
		{
			"bufferView":7,
			"componentType":5123,
			"count":23370,
			"type":"SCALAR"
		}
	],
	"bufferViews":[
		{
			"buffer":0,
			"byteLength":59124,
			"byteOffset":0,
			"target":34962
		},
		{
			"buffer":0,
			"byteLength":59124,
			"byteOffset":59124,
			"target":34962
		},
		{
			"buffer":0,
			"byteLength":39416,
			"byteOffset":118248,
			"target":34962
		},
		{
			"buffer":0,
			"byteLength":35412,
			"byteOffset":157664,
			"target":34963
		},
		{
			"buffer":0,
			"byteLength":66636,
			"byteOffset":193076,
			"target":34962
		},
		{
			"buffer":0,
			"byteLength":66636,
			"byteOffset":259712,
			"target":34962
		},
		{
			"buffer":0,
			"byteLength":44424,
			"byteOffset":326348,
			"target":34962
		},
		{
			"buffer":0,
			"byteLength":46740,
			"byteOffset":370772,
			"target":34963
		}
	],
	"samplers":[
		{
			"magFilter":9729,
			"minFilter":9987
		}
	],
	"buffers":[
		{
			"byteLength":417512,
			"uri":"untitled.bin"
		}
	]
}
