{
	"asset":{
		"generator":"Khronos glTF Blender I/O v4.3.47",
		"version":"2.0"
	},
	"extensionsUsed":[
		"KHR_materials_specular"
	],
	"scene":0,
	"scenes":[
		{
			"name":"Scene",
			"nodes":[
				0
			]
		}
	],
	"nodes":[
		{
			"mesh":0,
			"name":"Reactor",
			"rotation":[
				0.7071068286895752,
				0,
				0,
				0.7071068286895752
			],
			"scale":[
				0.009999999776482582,
				0.009999999776482582,
				0.009999999776482582
			],
			"translation":[
				0,
				13.401637077331543,
				-32.74143600463867
			]
		}
	],
	"materials":[
		{
			"doubleSided":true,
			"extensions":{
				"KHR_materials_specular":{
					"specularFactor":0
				}
			},
			"name":"Space_base_mat.018",
			"pbrMetallicRoughness":{
				"baseColorTexture":{
					"index":0
				},
				"roughnessFactor":0.858578622341156
			}
		}
	],
	"meshes":[
		{
			"name":"Mesh.052",
			"primitives":[
				{
					"attributes":{
						"POSITION":0,
						"NORMAL":1,
						"TEXCOORD_0":2
					},
					"indices":3,
					"material":0
				}
			]
		}
	],
	"textures":[
		{
			"sampler":0,
			"source":0
		}
	],
	"images":[
		{
			"mimeType":"image/png",
			"name":"T_Spase_64",
			"uri":"T_Spase_64.png"
		}
	],
	"accessors":[
		{
			"bufferView":0,
			"componentType":5126,
			"count":4116,
			"max":[
				967.5250244140625,
				656.5402221679688,
				2.404618726359331e-07
			],
			"min":[
				-967.526123046875,
				-656.5402221679688,
				-879.2173461914062
			],
			"type":"VEC3"
		},
		{
			"bufferView":1,
			"componentType":5126,
			"count":4116,
			"type":"VEC3"
		},
		{
			"bufferView":2,
			"componentType":5126,
			"count":4116,
			"type":"VEC2"
		},
		{
			"bufferView":3,
			"componentType":5123,
			"count":17304,
			"type":"SCALAR"
		}
	],
	"bufferViews":[
		{
			"buffer":0,
			"byteLength":49392,
			"byteOffset":0,
			"target":34962
		},
		{
			"buffer":0,
			"byteLength":49392,
			"byteOffset":49392,
			"target":34962
		},
		{
			"buffer":0,
			"byteLength":32928,
			"byteOffset":98784,
			"target":34962
		},
		{
			"buffer":0,
			"byteLength":34608,
			"byteOffset":131712,
			"target":34963
		}
	],
	"samplers":[
		{
			"magFilter":9729,
			"minFilter":9987
		}
	],
	"buffers":[
		{
			"byteLength":166320,
			"uri":"untitled.bin"
		}
	]
}
